<svg width="23" height="24" viewBox="0 0 23 24" fill="none" xmlns="http://www.w3.org/2000/svg">
<path d="M14.985 23.4068C14.817 23.0287 14.67 22.6436 14.544 22.2515C14.418 21.8454 14.3201 21.4393 14.25 21.0332C13.5221 21.8734 12.633 22.5526 11.583 23.0707C10.547 23.5888 9.35702 23.8479 8.01304 23.8479C5.78705 23.8479 4.01606 23.2457 2.70006 22.0414C1.39807 20.8231 0.74707 19.1707 0.74707 17.0842C0.74707 14.9556 1.60107 13.3103 3.30906 12.1479C5.01706 10.9856 7.52304 10.4045 10.827 10.4045H13.956V8.17794C13.956 7.08567 13.6411 6.23849 13.011 5.63632C12.381 5.03415 11.45 4.73311 10.2181 4.73311C9.51803 4.73311 8.89505 4.81707 8.34904 4.98517C7.80305 5.13916 7.36205 5.32823 7.02605 5.55227L6.62705 7.98887H2.00707L2.02807 2.94766C3.14807 2.1914 4.42906 1.55425 5.87105 1.03613C7.32704 0.518012 8.90905 0.258904 10.6171 0.258904C13.431 0.258904 15.713 0.952082 17.463 2.33844C19.227 3.71078 20.109 5.67129 20.109 8.21997V17.6093C20.109 17.9594 20.109 18.2885 20.109 18.5966C20.123 18.9047 20.151 19.1987 20.193 19.4788L22.062 19.7309V23.4068H14.985ZM9.67208 19.3107C10.596 19.3107 11.436 19.1147 12.192 18.7227C12.9481 18.3165 13.536 17.8124 13.956 17.2102V13.7443H10.827C9.52508 13.7443 8.53807 14.0524 7.86605 14.6686C7.19405 15.2708 6.85804 15.9989 6.85804 16.8531C6.85804 17.6233 7.10304 18.2255 7.59305 18.6596C8.09704 19.0937 8.79006 19.3107 9.67208 19.3107Z" fill="#333333"/>
</svg>
